# xmcd CD database file
#
# Track frame offsets:
#	150
#	13980
#	27095
#	42320
#	54207
#	71677
#	96500
#	117257
#	131487
#	154332
#	171832
#	193470
#
# Disc length: 2755 seconds
#
# Revision: 4
# Processed by: cddbd v1.5.2PL0 Copyright (c) Steve Scherf et al.
# Submitted via: jetAudio 7
#
DISCID=ab0ac10c
DTITLE=Various Artist - American Folk Blues Festival '63
DYEAR=1963
DGENRE=Blues
TTITLE0=Wish Me Well
TTITLE1=I Have No Friends
TTITLE2=Sittin And Cryin The Blues
TTITLE3=Crazy For My Baby
TTITLE4=Grant Spivey
TTITLE5=Matt's Guitar Boogie
TTITLE6=Sonny Boy Williamson - Otis Spann - Willie Dixon - Matt "Guitar" M
TTITLE6=urphy - 
TTITLE7=Sonny Boy Williamson - Sonny Boy's Harmonica Blues
TTITLE8=Lonnie Johnson - It's Too Late To Cry
TTITLE9=Otis Spann - Willie Dixon - Matt "Guitar" Murphy - Bill Stepney - S
TTITLE9=onny Boy
TTITLE10=Muddy Waters - Otis Spann - Willie Dixon - Bill Stepney - Five Lo
TTITLE10=ng Years
TTITLE11=All Participating Artists - Bye Bye Blues
EXTD=
EXTT0=
EXTT1=
EXTT2=
EXTT3=
EXTT4=
EXTT5=
EXTT6=
EXTT7=
EXTT8=
EXTT9=
EXTT10=
EXTT11=
PLAYORDER=
